<?xml version="1.0" encoding="UTF-8" standalone="no"?>
<!-- Created with Inkscape (http://www.inkscape.org/) -->

<svg
   height="177.60504"
   width="980.33746"
   sodipodi:docname="OfficeTakiSiteLogo.svg"
   version="1.1"
   id="svg1"
   inkscape:version="1.3.2 (091e20e, 2023-11-25, custom)"
   xmlns:inkscape="http://www.inkscape.org/namespaces/inkscape"
   xmlns:sodipodi="http://sodipodi.sourceforge.net/DTD/sodipodi-0.dtd"
   xmlns="http://www.w3.org/2000/svg"
   xmlns:svg="http://www.w3.org/2000/svg"
   xmlns:rdf="http://www.w3.org/1999/02/22-rdf-syntax-ns#"
   xmlns:cc="http://creativecommons.org/ns#"
   xmlns:dc="http://purl.org/dc/elements/1.1/">
  <sodipodi:namedview
     id="base"
     pagecolor="#ffffff"
     bordercolor="#000000"
     borderopacity="0.3"
     inkscape:pageopacity="0.0"
     inkscape:pageshadow="2"
     inkscape:zoom="0.5"
     inkscape:cx="501"
     inkscape:cy="497"
     inkscape:document-units="px"
     inkscape:current-layer="layer1"
     showgrid="false"
     showguides="true"
     inkscape:window-width="1920"
     inkscape:window-height="1017"
     inkscape:window-x="1912"
     inkscape:window-y="482"
     inkscape:window-maximized="1"
     showborder="true"
     inkscape:showpageshadow="false"
     inkscape:pagecheckerboard="0"
     inkscape:deskcolor="#d1d1d1">
    <sodipodi:guide
       id="guide_baseline"
       inkscape:label="baseline"
       position="-53.7244,865.47076"
       orientation="0,1"
       inkscape:locked="false" />
    <sodipodi:guide
       id="guide_ascender"
       inkscape:label="ascender"
       position="-53.7244,1557.4708"
       orientation="0,1"
       inkscape:locked="false" />
    <sodipodi:guide
       id="guide_caps"
       inkscape:label="caps"
       position="-53.7244,1508.4708"
       orientation="0,1"
       inkscape:locked="false" />
    <sodipodi:guide
       id="guide_xheight"
       inkscape:label="xheight"
       position="-53.7244,1341.4708"
       orientation="0,1"
       inkscape:locked="false" />
    <sodipodi:guide
       id="guide_descender"
       inkscape:label="descender"
       position="-53.7244,640.47076"
       orientation="0,1"
       inkscape:locked="false" />
  </sodipodi:namedview>
  <defs
     id="defs4" />
  <metadata
     id="metadata7">
    <rdf:RDF>
      <cc:Work
         rdf:about="">
        <dc:format>image/svg+xml</dc:format>
        <dc:type
           rdf:resource="http://purl.org/dc/dcmitype/StillImage" />
      </cc:Work>
    </rdf:RDF>
  </metadata>
  <g
     id="layer1"
     inkscape:groupmode="layer"
     inkscape:label="Layer 1"
     transform="translate(-53.7244,-612.47076)">
    <g
       id="g18">
      <path
         style="fill:#000000"
         id="path9"
         d="m 97.60363,629.12709 c -1.29666,0.99269 -2.66195,1.90165 -3.88999,2.97807 -1.19703,1.04923 -9.02395,8.80291 -9.969725,9.74146 -4.440933,4.40703 -8.70617,8.84668 -12.764608,13.60618 -7.547,8.19679 -8.235987,14.26772 -9.134005,25.03961 -0.130322,9.25366 -1.5849,18.72818 0.403635,27.85265 4.812543,14.82923 19.016448,20.24537 31.765423,27.2904 10.34472,3.41669 21.46537,6.46801 32.49727,5.96955 2.11543,-0.0956 4.19955,-0.54826 6.29932,-0.82239 15.27503,-3.49014 25.14127,-13.27385 34.51659,-25.14542 8.48863,-14.11348 12.22878,-30.43426 15.82979,-46.34116 0.88068,-7.84034 4.21956,-16.2067 2.64286,-24.20521 -0.20058,-1.01751 -0.63254,-1.97539 -0.94881,-2.96308 -5.69162,-10.29525 -17.98358,-15.54751 -29.00606,-18.52175 -8.06836,-1.5781 -16.3113,-1.92784 -24.51192,-2.00988 -7.73052,0.0859 -15.48598,-0.31285 -23.19832,0.29712 -5.43931,0.50968 -10.82901,1.51707 -15.88065,3.61625 0,0 12.35518,8.27623 12.35518,8.27623 v 0 c 4.98193,-1.91839 10.25321,-2.82534 15.56628,-3.27348 7.68346,-0.47705 15.39479,-0.17715 23.0892,-0.21671 8.131,0.19035 16.33348,0.43104 24.28095,2.33152 5.34684,1.69047 16.32336,7.43918 -2.24874,-2.9017 -2.55751,-1.42401 8.60563,5.68915 6.08421,6.13019 0.3761,0.88295 0.87993,1.72184 1.12831,2.64886 2.01205,7.50965 -1.40757,16.51168 -2.08133,23.95563 -3.35044,15.75824 -7.17915,31.80245 -15.56192,45.74219 -9.1725,11.67398 -18.83942,21.12085 -33.94583,24.15194 -2.05103,0.2126 -4.09172,0.58611 -6.1531,0.63781 -10.95424,0.27476 -21.9646,-2.70846 -32.132862,-6.44714 2.255609,1.47765 4.376769,3.18442 6.766828,4.43297 1.617124,0.84477 -3.017678,-2.05939 -4.431246,-3.21289 -3.357543,-2.73982 -6.098554,-6.011 -8.060484,-9.88433 -0.510484,-1.00782 -0.873236,-2.0839 -1.309853,-3.12585 -2.373431,-8.93685 -0.858404,-18.37826 -0.773483,-27.51055 0.878682,-10.39953 1.544814,-16.24018 8.71639,-24.23995 3.963184,-4.7732 8.12749,-9.21476 12.54781,-13.57349 1.9717,-1.94422 7.73817,-7.5939 10.03129,-9.44886 1.24628,-1.00814 2.64541,-1.81108 3.96812,-2.71663 z" />
      <path
         style="fill:#000000"
         id="path10"
         d="m 195.96212,678.3943 c 13.60829,-0.21034 27.21937,-0.14698 40.82885,-0.13101 8.40289,0.002 16.80568,0.0109 25.20852,0.0418 0,0 -11.851,-8.61026 -11.851,-8.61026 v 0 c -8.36444,0.0311 -16.72885,0.04 -25.09335,0.0418 -13.72972,0.0162 -27.46092,0.0769 -41.1895,-0.13101 z" />
      <path
         style="fill:#000000"
         id="path11"
         d="m 288.28134,639.53594 c -4.41047,-13.95806 -13.72597,-16.80629 -26.48843,-24.06896 -6.48539,-1.8335 -14.44178,-4.53637 -21.16214,-1.89248 -1.20571,0.47434 -2.23194,1.31658 -3.34791,1.97488 -8.70445,8.46222 -13.54141,20.0424 -18.6092,30.88029 -5.27295,10.63229 -10.07687,21.47542 -14.47249,32.49585 -3.96466,9.97541 -8.16587,19.80628 -12.64668,29.55737 -4.5907,9.50984 -8.61222,19.2754 -12.80597,28.96057 -2.31086,5.73687 -3.89251,11.75746 -7.3198,16.96754 0,0 12.897,7.52982 12.897,7.52982 v 0 c 3.37834,-5.35033 5.02533,-11.41997 7.25792,-17.29142 4.08724,-9.71989 8.11092,-19.47346 12.74806,-28.95127 4.44119,-9.79769 8.74366,-19.61579 12.61469,-29.6586 4.36464,-11.00463 9.2233,-21.79455 14.42247,-32.43168 4.85143,-10.57861 9.56368,-21.9894 18.30894,-29.97289 1.03287,-0.52423 1.99889,-1.20903 3.09861,-1.57268 6.67074,-2.20584 14.26691,0.47583 20.51606,2.62826 -2.91443,-1.79324 -5.71283,-3.79041 -8.74329,-5.37973 -1.16706,-0.61207 2.14716,1.53938 3.1186,2.42986 3.41796,3.13312 5.84288,6.91484 7.09395,11.37411 z" />
      <path
         style="fill:#000000"
         id="path10-5"
         d="m 276.5334,678.92352 c 13.60829,-0.21034 27.21937,-0.14698 40.82885,-0.13101 8.40289,0.002 16.80568,0.0109 25.20852,0.0418 0,0 -11.851,-8.61026 -11.851,-8.61026 v 0 c -8.36444,0.0311 -16.72885,0.04 -25.09335,0.0418 -13.72972,0.0162 -27.46092,0.0769 -41.1895,-0.13101 z" />
      <path
         style="fill:#000000"
         id="path11-7"
         d="m 368.85262,640.06516 c -4.41047,-13.95806 -13.72597,-16.80629 -26.48843,-24.06896 -6.48539,-1.8335 -14.44178,-4.53637 -21.16214,-1.89248 -1.20571,0.47434 -2.23194,1.31658 -3.34791,1.97488 -8.70445,8.46222 -13.54141,20.0424 -18.6092,30.88029 -5.27295,10.63229 -10.07687,21.47542 -14.47249,32.49585 -3.96466,9.97541 -8.16587,19.80628 -12.64668,29.55737 -4.5907,9.50984 -8.61222,19.2754 -12.80597,28.96057 -2.31086,5.73687 -3.89251,11.75746 -7.3198,16.96754 0,0 12.897,7.52982 12.897,7.52982 v 0 c 3.37834,-5.35033 5.02533,-11.41997 7.25792,-17.29142 4.08724,-9.71989 8.11092,-19.47346 12.74806,-28.95127 4.44119,-9.79769 8.74366,-19.61579 12.61469,-29.6586 4.36464,-11.00463 9.2233,-21.79455 14.42247,-32.43168 4.85143,-10.57861 9.56368,-21.9894 18.30894,-29.97289 1.03287,-0.52423 1.99889,-1.20903 3.09861,-1.57268 6.67074,-2.20584 14.26691,0.47583 20.51606,2.62826 -2.91443,-1.79324 -5.71283,-3.79041 -8.74329,-5.37973 -1.16706,-0.61207 2.14716,1.53938 3.1186,2.42986 3.41796,3.13312 5.84288,6.91484 7.09395,11.37411 z" />
      <path
         style="fill:#000000"
         id="path12"
         d="m 372.56752,673.93983 c -4.14313,8.91835 -8.25423,17.86542 -12.03048,26.94831 -2.90197,6.58441 -6.1183,13.0059 -9.13761,19.53746 -1.78411,5.3165 -4.51438,10.22854 -6.38055,15.50745 -0.26482,0.69532 -0.52963,1.39064 -0.79445,2.08596 0,0 13.04053,7.25424 13.04053,7.25424 v 0 c 0.27074,-0.70974 0.54148,-1.41948 0.81221,-2.12922 1.77913,-5.26286 4.48814,-10.13784 6.25539,-15.41132 2.99572,-6.56938 6.19937,-13.02364 9.02057,-19.6707 3.68524,-9.03684 7.70953,-17.97485 12.16547,-26.65256 z" />
      <path
         style="fill:#000000"
         id="path13"
         d="m 386.58578,627.65163 c -2.14818,3.56254 -3.85622,7.36577 -5.63203,11.12089 0,0 12.88027,7.30286 12.88027,7.30286 v 0 c 1.77142,-3.67435 3.44905,-7.42183 5.66633,-10.8562 z" />
      <path
         style="fill:#000000"
         id="path12-5"
         d="m 922.34309,673.2882 c -4.14313,8.91835 -8.25423,17.86542 -12.03048,26.94831 -2.90197,6.58441 -6.1183,13.0059 -9.13761,19.53746 -1.78411,5.3165 -4.51438,10.22854 -6.38055,15.50745 -0.26482,0.69532 -0.52963,1.39064 -0.79445,2.08596 0,0 13.04053,7.25424 13.04053,7.25424 v 0 c 0.27074,-0.70974 0.54148,-1.41948 0.81221,-2.12922 1.77913,-5.26286 4.48814,-10.13784 6.25539,-15.41132 2.99572,-6.56938 6.19937,-13.02364 9.02057,-19.6707 3.68524,-9.03684 7.70953,-17.97485 12.16547,-26.65256 z" />
      <path
         style="fill:#000000"
         id="path13-9"
         d="m 936.36135,627 c -2.14818,3.56254 -3.85622,7.36577 -5.63203,11.12089 0,0 12.88027,7.30286 12.88027,7.30286 v 0 c 1.77142,-3.67435 3.44905,-7.42183 5.66633,-10.8562 z" />
      <path
         style="fill:#000000"
         id="path14"
         d="m 481.53429,681.77011 c -9.68945,-7.08896 -20.08029,-12.70307 -31.79566,-14.9818 -6.2036,-0.98916 -12.50085,-1.44247 -18.76497,-0.93262 -8.82682,1.54858 -15.15658,7.53262 -21.03045,13.83944 -4.73295,6.20346 -8.18619,13.30498 -11.60644,20.2943 -3.13401,6.00885 -4.09668,12.60981 -4.686,19.26394 0.0867,5.05743 2.06877,9.40775 6.56027,12.01254 5.13412,2.97747 10.37485,5.7672 15.56227,8.6508 6.9619,2.25614 14.36528,2.54518 21.61987,2.19778 8.59688,-0.68796 16.67765,-3.69329 24.81499,-6.31273 5.34186,-1.91903 10.23468,-4.91434 14.89714,-8.11377 0,0 -12.51792,-7.99664 -12.51792,-7.99664 v 0 c -4.57137,3.09693 -9.34588,5.99589 -14.58822,7.81272 -8.0321,2.62944 -16.07035,5.48695 -24.5909,5.96838 -7.17004,0.1697 -14.50131,-0.1374 -21.25199,-2.80014 3.29613,1.99706 6.60512,3.97305 9.8884,5.99117 0.8687,0.53396 -1.8164,-0.94281 -2.64411,-1.53834 -3.01298,-2.16784 -4.30478,-5.41794 -4.57933,-9.02336 0.49977,-6.48634 1.37924,-12.92463 4.38554,-18.80021 3.34597,-6.86347 6.70427,-13.84778 11.33175,-19.94836 5.68364,-6.08707 11.85889,-11.78874 20.49516,-12.85332 6.18901,-0.2912 12.40124,0.12004 18.50098,1.23683 3.51981,0.79186 6.8581,1.69569 10.17804,3.13972 1.12757,0.49044 4.36214,2.25332 3.33358,1.5795 -20.73232,-13.58205 -10.18051,-6.10006 -7.4514,-4.13992 z" />
      <path
         style="fill:#000000"
         id="path15"
         d="m 515.73127,712.4004 c 6.094,-0.16606 12.20485,0.23631 18.27946,-0.32112 5.75454,-0.45924 11.37007,-1.40422 16.66645,-3.73463 5.27802,-1.85876 9.13777,-4.8102 11.65997,-9.80399 1.95835,-4.779 2.21569,-9.92639 2.36043,-15.0183 -0.07,-4.10799 -1.46048,-8.13814 -5.21247,-10.28569 -4.9755,-2.84786 -10.05189,-5.5157 -15.07784,-8.27355 -6.15947,-1.5396 -10.82993,-1.64088 -16.85478,0.39467 -8.53912,3.19973 -15.18809,9.32195 -21.33446,15.84741 -6.29473,6.04369 -10.55492,13.69201 -13.53812,21.81051 -2.14984,6.73978 -3.23586,13.81937 -3.08619,20.8912 0.36912,0.97812 0.61248,2.01345 1.10735,2.93436 0.77973,1.45099 2.82212,3.81986 4.20801,4.68396 11.61328,7.24088 13.35249,8.90385 23.75522,11.30397 8.30899,1.20213 16.78603,1.88326 25.17607,1.33413 7.838,-0.0676 14.70412,-3.18715 21.58759,-6.53565 4.17534,-2.09448 8.27353,-4.36647 12.26647,-6.79229 0,0 -12.47615,-8.06332 -12.47615,-8.06332 v 0 c -3.9502,2.39509 -7.97662,4.6902 -12.12914,6.7155 -6.76804,3.27031 -13.59517,6.02752 -21.26191,6.04491 -8.31327,0.33892 -16.70723,-0.14126 -24.89244,-1.66634 -5.97486,-1.56989 -16.693,-6.68396 1.72995,3.2255 2.60382,1.40056 -8.15127,-5.75237 -5.78695,-6.48595 -0.43719,-6.89272 0.74672,-13.83867 2.70299,-20.43759 2.87673,-7.9429 7.07385,-15.38975 13.18626,-21.31696 6.05725,-6.31949 12.56421,-12.26661 21.01791,-15.14128 5.47994,-1.44152 10.91847,-1.44909 16.32276,0.48458 -3.5054,-2.12103 -7.03912,-4.19594 -10.5162,-6.36309 -0.67559,-0.42107 1.45956,0.66068 2.10797,1.12252 2.61532,1.86281 3.55779,4.69426 3.7405,7.77101 -0.10849,4.87731 -0.25767,9.83373 -2.04455,14.44289 -2.48026,4.9542 -6.03026,6.97723 -11.1076,8.91076 -5.23286,2.11341 -10.75268,2.94338 -16.3668,3.36372 -6.08948,0.4135 -12.20287,0.11858 -18.30302,0.15735 z" />
      <path
         style="fill:#000000"
         id="path25"
         d="m 657.94222,643.11724 c 5.15438,-2.97611 10.78951,-4.82178 16.60075,-5.96828 5.84224,-0.84858 11.76699,-0.80946 17.65713,-0.83977 6.62274,0.001 13.24544,0.0172 19.86817,0.0255 6.6767,0.013 13.35344,0.0339 20.03015,0.0218 8.11123,0.20964 16.17299,-0.10626 24.20675,-1.24824 7.13869,-0.5527 13.82218,-3.02921 20.71078,-4.72077 5.15888,-1.16204 10.00707,-3.21341 14.96308,-4.98797 0,0 -12.30251,-8.30222 -12.30251,-8.30222 v 0 c -4.90372,1.78835 -9.75824,3.69955 -14.86115,4.87655 -6.81332,1.74793 -13.49003,4.02423 -20.55334,4.62848 -8.02363,1.01965 -16.07187,1.24919 -24.15624,1.04059 -6.6709,-0.015 -13.34184,1.2e-4 -20.01276,-0.0125 -6.63931,-0.0186 -13.27866,-0.0606 -19.91797,-0.0459 -5.95961,0.0477 -11.96702,0.045 -17.85618,1.06658 -5.90748,1.33214 -11.59993,3.37507 -16.91181,6.31774 z" />
      <path
         style="fill:#000000"
         id="path26"
         d="m 711.13988,636.18192 c -1.32013,6.08827 -2.12044,12.2768 -3.34809,18.37905 -2.00897,6.31807 -3.84268,12.6906 -5.75544,19.04246 -1.7045,5.06851 -4.31285,9.71904 -6.71298,14.46961 -2.44312,5.45488 -5.13462,10.79022 -7.70452,16.187 -2.05685,4.65366 -4.52901,9.09415 -6.76331,13.66368 -2.5766,4.97965 -4.60455,10.22308 -7.86383,14.81077 -1.56658,2.26608 -3.36512,4.38682 -5.3265,6.31962 0,0 12.76193,7.81 12.76193,7.81 v 0 c 1.96608,-2.03985 3.80983,-4.21885 5.39081,-6.57362 3.24516,-4.69014 5.35968,-9.96519 8.00775,-14.99745 2.23466,-4.57633 4.67735,-9.04156 6.71987,-13.70801 2.5505,-5.39504 5.27083,-10.69941 7.6978,-16.1491 2.43651,-4.83253 5.16267,-9.52707 6.81437,-14.71659 1.88002,-6.40666 3.72792,-12.815 5.84695,-19.14338 1.24773,-6.11601 1.85539,-12.36151 3.47696,-18.4086 z" />
      <path
         style="fill:#000000"
         id="path27"
         d="m 789.49903,683.60278 c -9.81482,-6.93914 -20.19275,-12.5711 -31.90667,-14.96534 -6.53376,-1.33917 -12.65186,0.32907 -18.58995,2.97136 -6.26641,3.84683 -10.54902,9.81665 -14.22965,16.02817 -3.46354,6.16336 -4.81261,13.1533 -6.01737,20.03911 -0.90945,5.40372 -1.24966,10.87306 -1.39826,16.34304 -0.36002,4.78816 0.74211,8.99659 4.07106,12.47712 8.63024,7.37847 17.17799,10.27252 27.6474,11.42338 6.65565,1.07064 12.0138,-2.054 17.27522,-5.70105 7.84259,-5.05481 14.08704,-11.96633 19.98657,-19.09685 5.24659,-6.5961 9.50691,-13.9117 12.91635,-21.60482 2.15109,-5.50426 2.96176,-11.34224 3.33916,-17.19924 1.40777,-11.65712 -2.69359,-9.34218 -15.46947,-14.89496 -3.80809,4.17587 -6.71653,8.92506 -9.13434,14.00451 -2.54257,5.46134 -3.65655,11.40654 -5.42646,17.12784 -1.63057,5.28418 -2.78659,10.72738 -3.79139,16.1645 -1.0404,5.08388 -1.14915,10.13912 0.27604,15.13039 3.48066,8.51201 14.02158,11.70746 22.54312,12.41634 5.03698,0.62666 9.24003,0.0865 14.00894,-1.47673 2.52144,-1.27325 1.35888,-0.52589 3.50274,-2.21847 0,0 -12.64232,-7.99066 -12.64232,-7.99066 v 0 c -1.93702,1.38668 -0.87926,0.76895 -3.19689,1.81216 -4.49788,1.37538 -8.96206,1.58356 -13.64208,0.98638 -1.67506,-0.20972 -2.94136,-0.29002 -4.55563,-0.78882 -0.59763,-0.18467 -2.26145,-1.0536 -1.73398,-0.7174 20.3907,12.99666 11.87037,8.81126 9.23555,4.36282 -1.59702,-4.78535 -1.75272,-9.56247 -0.67661,-14.52883 0.98086,-5.38252 2.15569,-10.75915 3.71952,-16.00081 1.76502,-5.65349 2.81554,-11.54357 5.27545,-16.96523 2.29748,-4.77143 4.97235,-9.37144 8.79701,-13.10269 -4.04972,-2.489 -8.15379,-4.8917 -12.14918,-7.46702 -1.25251,-0.80733 0.93555,-0.31364 1.57725,1.08729 0.87501,1.91028 0.55302,4.2469 0.23562,6.21383 -0.28564,5.70243 -0.94858,11.40392 -3.00424,16.77832 -3.29794,7.59404 -7.41479,14.84313 -12.6152,21.30878 -5.80168,7.0642 -12.05566,13.77113 -19.84591,18.68977 -5.18927,3.44985 -10.32651,5.96166 -16.72809,4.79051 -2.89104,-0.36987 -5.78162,-0.73327 -8.583,-1.57987 -0.81559,-0.24647 -3.11344,-1.34322 -2.40165,-0.87493 6.8171,4.48495 15.23452,8.592 9.10035,5.56004 -3.68229,-2.83095 -5.00122,-6.70418 -4.62942,-11.32043 0.098,-5.4182 0.35013,-10.841 1.19562,-16.20223 1.12538,-6.71423 2.45627,-13.53409 5.74637,-19.57058 3.53739,-5.96099 7.60846,-11.74022 13.80536,-15.19507 5.82937,-2.43881 11.71792,-3.76765 18.0207,-2.24372 3.31849,0.76206 6.49269,1.62847 9.63856,2.95874 1.12953,0.47764 4.3637,2.21441 3.34547,1.53089 -2.66688,-1.79026 -14.78801,-8.66744 -6.76054,-4.09745 z" />
      <path
         style="fill:#000000"
         id="path28"
         d="m 842.15451,620.83624 c 3.51986,6.53454 5.29801,13.63832 6.32969,20.9293 1.43102,9.35943 0.1637,18.67651 -1.58208,27.88747 -1.43687,7.8369 -3.58497,15.51132 -5.74474,23.17471 -1.93981,7.40234 -5.24325,14.15172 -9.02521,20.74807 -3.54702,5.36577 -7.5428,10.41115 -10.98283,15.84803 -2.06423,3.29029 -4.87681,5.67029 -8.1574,7.62936 -1.86853,1.44417 -0.93107,0.75948 -2.80875,2.05904 0,0 12.62622,8.04264 12.62622,8.04264 v 0 c 1.85918,-1.32016 0.94274,-0.66149 2.74977,-1.97538 3.44106,-2.09982 6.28831,-4.82855 8.44976,-8.26737 3.41175,-5.47557 7.41739,-10.53619 10.932,-15.94406 3.86203,-6.69498 7.18748,-13.5608 9.19532,-21.07124 2.17576,-7.70495 4.3611,-15.41954 5.77052,-23.30598 1.78941,-9.33277 3.06924,-18.80351 1.80892,-28.30029 -0.90274,-7.39704 -2.5868,-14.59194 -5.95634,-21.29903 z" />
      <path
         style="fill:#000000"
         id="path29"
         d="m 876.10089,670.56961 c -5.81621,2.85731 -11.69352,5.57568 -17.43394,8.58694 -5.34989,2.90734 -10.78699,5.49186 -16.39886,7.8336 -3.87282,1.91874 -7.4406,4.72493 -10.13193,8.11569 -0.35467,0.69576 -1.60407,2.3329 -0.28672,3.17792 14.90867,9.56323 11.05323,7.15825 22.25977,8.60937 4.7958,1.87183 9.23269,3.72644 -8.06486,-4.86453 -0.86289,-0.42856 1.58935,1.09953 2.30192,1.74799 2.32711,2.11772 3.7331,4.81072 5.2596,7.50733 2.82522,6.22168 5.18062,12.55629 8.71985,18.41659 3.35057,4.16943 6.61686,8.42919 10.06994,12.52027 5.25001,7.22045 10.33641,8.35697 19.40898,13.10082 0,0 -12.01843,-8.98438 -12.01843,-8.98438 v 0 c 21.93371,13.33441 10.1148,7.34826 6.35621,1.69361 -3.54773,-3.99389 -6.60545,-8.38772 -10.22869,-12.32369 -0.29171,-0.46843 -3.02305,-4.83729 -3.24214,-5.26064 -2.17473,-4.20236 -3.38807,-8.8849 -5.53866,-13.10426 -0.67845,-1.27759 -2.24735,-4.32993 -3.11237,-5.60473 -4.70215,-6.9297 -14.2002,-11.68241 -21.85772,-13.73351 -1.76918,-0.17603 -3.5491,-0.24793 -5.31276,-0.47262 -0.74057,-0.0943 -2.80403,-0.85227 -2.20155,-0.4114 3.50952,2.56811 7.5122,4.40277 11.07122,6.90183 0.35497,0.24925 -1.07721,0.33069 -1.30056,-0.0411 -0.22713,-0.37809 0.36935,-0.80108 0.55403,-1.20162 2.57643,-3.1863 5.97557,-5.79567 9.694,-7.50756 5.63045,-2.34043 10.95459,-5.19998 16.36857,-7.99775 5.78058,-2.92157 11.60045,-5.76369 17.51404,-8.40797 z" />
    </g>
    <path
       style="fill:#000000"
       id="path19"
       d="m 66.103353,765.44842 c 10.661815,-4.94604 21.826082,-8.5444 33.261016,-11.17067 21.902971,-4.39389 44.317761,-5.06988 66.579251,-5.73938 27.05636,-0.58725 54.12184,-0.56975 81.18326,-0.57045 30.91932,0.0914 61.83815,0.0182 92.75739,-0.0719 44.38758,-0.11759 88.77516,-0.0173 133.16266,-0.16155 59.42411,-0.20624 118.84891,-0.13472 178.27334,-0.14782 48.64695,0.0398 97.29362,0.21724 145.94052,0.28616 37.432,0.0417 74.86383,1e-5 112.29574,0.10302 23.06198,0.11176 46.12416,0.14607 69.18628,0.21146 11.10401,0.006 22.20779,0.0934 33.31179,0.10679 0,0 -11.8208,-8.58826 -11.8208,-8.58826 v 0 c -11.00593,0.0133 -22.01172,0.10088 -33.01775,0.10679 -22.86809,0.0653 -45.73624,0.0993 -68.6042,0.21145 -37.33736,0.10354 -74.67465,0.0609 -112.01211,0.10305 -48.38415,0.0689 -96.76807,0.24677 -145.15227,0.28654 -59.55994,-0.0128 -119.12024,0.0589 -178.67987,-0.14758 -44.54636,-0.14478 -89.09285,-0.0466 -133.63926,-0.18522 -31.0362,-0.10947 -62.07212,-0.22713 -93.10856,-0.18296 -27.12045,-0.007 -54.24548,-0.13594 -81.3608,0.49458 -22.44635,0.70646 -45.03392,1.37006 -67.140011,5.68257 -11.588303,2.68197 -22.808437,6.47556 -33.79457,11.04109 z" />
    <path
       style="fill:#000000"
       id="path20"
       d="m 68.457734,790.07583 c 10.793042,-1.92823 21.634336,-3.56636 32.450396,-5.36351 21.82182,-3.14263 43.6473,-6.29943 65.56199,-8.72576 26.61778,-2.60684 53.36414,-3.32866 80.09013,-3.73481 20.7687,-0.19116 41.53847,-0.13254 62.30771,-0.19667 31.67376,-0.0786 63.34769,-0.0825 95.02155,-0.13543 42.68956,-0.24061 85.37955,-0.0594 128.06928,-0.0239 35.52764,0.055 71.05521,0.0598 106.58285,0.0497 39.12992,-0.0556 78.25976,-0.0895 117.3897,-0.0531 36.52734,0.043 73.0547,0.0208 109.58204,0.0637 22.51548,0.0688 45.03091,0.15375 67.54614,0.28324 16.83868,0.0435 33.6767,-0.0991 50.51567,-0.0688 13.17056,0.0512 26.34121,0.0919 39.51171,0.13702 3.6584,0.0149 7.3167,0.0317 10.975,0.0475 0,0 -11.9882,-8.70996 -11.9882,-8.70996 v 0 c -3.6148,0.0157 -7.2295,0.0326 -10.8443,0.0475 -13.04485,0.0451 -26.08973,0.0858 -39.13457,0.13702 -16.90208,0.0306 -33.80325,-0.11242 -50.70505,-0.0688 -22.25533,0.13005 -44.51086,0.21459 -66.76645,0.28324 -36.46892,0.043 -72.93785,0.0206 -109.40678,0.0637 -39.17854,0.0366 -78.35698,0.002 -117.5355,-0.0528 -35.48177,-0.01 -70.96345,-0.005 -106.44521,0.0503 -42.71714,0.0352 -85.43457,0.21588 -128.15149,-0.0362 -31.84065,-0.0661 -63.68137,-0.0883 -95.52177,-0.22906 -20.77441,-0.0969 -41.5515,-0.16528 -62.32371,0.21613 -26.70906,0.51228 -53.42828,1.38937 -80.03411,3.92833 -22.089,2.29392 -44.068,5.52377 -66.08098,8.45149 -10.925014,1.71775 -21.855968,3.401 -32.796825,5.00992 z" />
  </g>
</svg>
